<svg xmlns="http://www.w3.org/2000/svg" xmlns:xlink="http://www.w3.org/1999/xlink" width="500" zoomAndPan="magnify" viewBox="0 0 375 374.999991" height="500" preserveAspectRatio="xMidYMid meet" version="1.0"><defs><g/></defs><g fill="#eae1d2" fill-opacity="1"><g transform="translate(23.955453, 195.183547)"><g><path d="M 22.71875 0 L 19.453125 0 L 19.453125 -10.640625 L 6.75 -10.640625 L 6.75 0 L 3.484375 0 L 3.484375 -24.25 L 6.75 -24.25 L 6.75 -13.75 L 19.453125 -13.75 L 19.453125 -24.25 L 22.71875 -24.25 Z M 22.71875 0 "/></g></g></g><g fill="#eae1d2" fill-opacity="1"><g transform="translate(57.599161, 195.183547)"><g><path d="M 16.203125 -6.375 L 6.875 -6.375 L 4.296875 0 L 1.078125 0 L 11.671875 -25.265625 L 11.875 -25.265625 L 22.46875 0 L 18.71875 0 Z M 15.09375 -9.1875 L 11.640625 -18.046875 L 8.046875 -9.1875 Z M 15.09375 -9.1875 "/></g></g></g><g fill="#eae1d2" fill-opacity="1"><g transform="translate(88.55962, 195.183547)"><g><path d="M 24.625 -24.25 L 24.625 0.8125 L 24.515625 0.8125 L 6.703125 -17.28125 L 6.78125 0 L 3.484375 0 L 3.484375 -25 L 3.65625 -25 L 21.4375 -6.703125 L 21.375 -24.25 Z M 24.625 -24.25 "/></g></g></g><g fill="#eae1d2" fill-opacity="1"><g transform="translate(124.115156, 195.183547)"><g><path d="M 16.203125 -6.375 L 6.875 -6.375 L 4.296875 0 L 1.078125 0 L 11.671875 -25.265625 L 11.875 -25.265625 L 22.46875 0 L 18.71875 0 Z M 15.09375 -9.1875 L 11.640625 -18.046875 L 8.046875 -9.1875 Z M 15.09375 -9.1875 "/></g></g></g><g fill="#eae1d2" fill-opacity="1"><g transform="translate(155.075611, 195.183547)"><g><path d="M 6.703125 -13.28125 L 7.109375 -13.921875 L 17.046875 -24.25 L 21.234375 -24.25 L 11.203125 -13.859375 L 21.8125 0 L 17.671875 0 L 8.828125 -11.78125 L 6.78125 -9.796875 L 6.8125 0 L 3.484375 0 L 3.484375 -24.25 L 6.8125 -24.25 L 6.8125 -14.5 Z M 6.703125 -13.28125 "/></g></g></g><g fill="#eae1d2" fill-opacity="1"><g transform="translate(185.331719, 195.183547)"><g><path d="M 1.984375 -12.109375 C 1.984375 -14.328125 2.539062 -16.382812 3.65625 -18.28125 C 4.769531 -20.1875 6.269531 -21.703125 8.15625 -22.828125 C 10.050781 -23.953125 12.117188 -24.515625 14.359375 -24.515625 C 16.566406 -24.515625 18.617188 -23.953125 20.515625 -22.828125 C 22.421875 -21.703125 23.9375 -20.1875 25.0625 -18.28125 C 26.195312 -16.382812 26.765625 -14.328125 26.765625 -12.109375 C 26.765625 -9.867188 26.207031 -7.796875 25.09375 -5.890625 C 23.976562 -3.992188 22.460938 -2.492188 20.546875 -1.390625 C 18.628906 -0.285156 16.566406 0.265625 14.359375 0.265625 C 12.117188 0.265625 10.046875 -0.28125 8.140625 -1.375 C 6.242188 -2.46875 4.742188 -3.957031 3.640625 -5.84375 C 2.535156 -7.738281 1.984375 -9.828125 1.984375 -12.109375 Z M 5.328125 -12.078125 C 5.328125 -10.421875 5.726562 -8.890625 6.53125 -7.484375 C 7.34375 -6.078125 8.445312 -4.957031 9.84375 -4.125 C 11.238281 -3.300781 12.765625 -2.890625 14.421875 -2.890625 C 16.078125 -2.890625 17.59375 -3.296875 18.96875 -4.109375 C 20.34375 -4.921875 21.425781 -6.035156 22.21875 -7.453125 C 23.019531 -8.878906 23.421875 -10.429688 23.421875 -12.109375 C 23.421875 -13.785156 23.015625 -15.335938 22.203125 -16.765625 C 21.398438 -18.203125 20.304688 -19.332031 18.921875 -20.15625 C 17.535156 -20.988281 16.015625 -21.40625 14.359375 -21.40625 C 12.703125 -21.40625 11.179688 -20.984375 9.796875 -20.140625 C 8.410156 -19.304688 7.316406 -18.171875 6.515625 -16.734375 C 5.722656 -15.304688 5.328125 -13.753906 5.328125 -12.078125 Z M 5.328125 -12.078125 "/></g></g></g><g fill="#eae1d2" fill-opacity="1"><g transform="translate(221.524518, 195.183547)"><g><path d="M 17.8125 -24.25 L 17.8125 -21.140625 L 11.3125 -21.140625 L 11.3125 0 L 8.046875 0 L 8.046875 -21.140625 L 1.703125 -21.140625 L 1.703125 -24.25 Z M 17.8125 -24.25 "/></g></g></g><g fill="#eae1d2" fill-opacity="1"><g transform="translate(248.493638, 195.183547)"><g><path d="M 1.984375 -12.109375 C 1.984375 -14.328125 2.539062 -16.382812 3.65625 -18.28125 C 4.769531 -20.1875 6.269531 -21.703125 8.15625 -22.828125 C 10.050781 -23.953125 12.117188 -24.515625 14.359375 -24.515625 C 16.566406 -24.515625 18.617188 -23.953125 20.515625 -22.828125 C 22.421875 -21.703125 23.9375 -20.1875 25.0625 -18.28125 C 26.195312 -16.382812 26.765625 -14.328125 26.765625 -12.109375 C 26.765625 -9.867188 26.207031 -7.796875 25.09375 -5.890625 C 23.976562 -3.992188 22.460938 -2.492188 20.546875 -1.390625 C 18.628906 -0.285156 16.566406 0.265625 14.359375 0.265625 C 12.117188 0.265625 10.046875 -0.28125 8.140625 -1.375 C 6.242188 -2.46875 4.742188 -3.957031 3.640625 -5.84375 C 2.535156 -7.738281 1.984375 -9.828125 1.984375 -12.109375 Z M 5.328125 -12.078125 C 5.328125 -10.421875 5.726562 -8.890625 6.53125 -7.484375 C 7.34375 -6.078125 8.445312 -4.957031 9.84375 -4.125 C 11.238281 -3.300781 12.765625 -2.890625 14.421875 -2.890625 C 16.078125 -2.890625 17.59375 -3.296875 18.96875 -4.109375 C 20.34375 -4.921875 21.425781 -6.035156 22.21875 -7.453125 C 23.019531 -8.878906 23.421875 -10.429688 23.421875 -12.109375 C 23.421875 -13.785156 23.015625 -15.335938 22.203125 -16.765625 C 21.398438 -18.203125 20.304688 -19.332031 18.921875 -20.15625 C 17.535156 -20.988281 16.015625 -21.40625 14.359375 -21.40625 C 12.703125 -21.40625 11.179688 -20.984375 9.796875 -20.140625 C 8.410156 -19.304688 7.316406 -18.171875 6.515625 -16.734375 C 5.722656 -15.304688 5.328125 -13.753906 5.328125 -12.078125 Z M 5.328125 -12.078125 "/></g></g></g><g fill="#eae1d2" fill-opacity="1"><g transform="translate(284.686451, 195.183547)"><g><path d="M 14.296875 -12.578125 C 15.679688 -12.046875 16.773438 -11.28125 17.578125 -10.28125 C 18.378906 -9.289062 18.78125 -8.132812 18.78125 -6.8125 C 18.78125 -5.269531 18.40625 -3.988281 17.65625 -2.96875 C 16.90625 -1.945312 15.921875 -1.195312 14.703125 -0.71875 C 13.484375 -0.238281 12.148438 0 10.703125 0 L 3.484375 0 L 3.484375 -24.25 L 9.765625 -24.25 C 12.242188 -24.25 14.164062 -23.738281 15.53125 -22.71875 C 16.894531 -21.707031 17.578125 -20.1875 17.578125 -18.15625 C 17.578125 -16.875 17.289062 -15.757812 16.71875 -14.8125 C 16.15625 -13.863281 15.347656 -13.117188 14.296875 -12.578125 Z M 6.75 -13.65625 L 10.4375 -13.65625 C 11.6875 -13.65625 12.628906 -14.007812 13.265625 -14.71875 C 13.898438 -15.4375 14.21875 -16.359375 14.21875 -17.484375 C 14.21875 -18.710938 13.835938 -19.628906 13.078125 -20.234375 C 12.316406 -20.835938 11.253906 -21.140625 9.890625 -21.140625 L 6.75 -21.140625 Z M 10.5625 -3.015625 C 11.976562 -3.015625 13.144531 -3.332031 14.0625 -3.96875 C 14.976562 -4.613281 15.4375 -5.550781 15.4375 -6.78125 C 15.4375 -8.050781 14.9375 -8.988281 13.9375 -9.59375 C 12.945312 -10.195312 11.742188 -10.5 10.328125 -10.5 L 6.75 -10.5 L 6.75 -3.015625 Z M 10.5625 -3.015625 "/></g></g></g><g fill="#eae1d2" fill-opacity="1"><g transform="translate(312.896595, 195.183547)"><g><path d="M 16.203125 -6.375 L 6.875 -6.375 L 4.296875 0 L 1.078125 0 L 11.671875 -25.265625 L 11.875 -25.265625 L 22.46875 0 L 18.71875 0 Z M 15.09375 -9.1875 L 11.640625 -18.046875 L 8.046875 -9.1875 Z M 15.09375 -9.1875 "/></g></g></g><g fill="#eae1d2" fill-opacity="1"><g transform="translate(23.955453, 226.158986)"><g><path d="M 5.109375 0.09375 C 4.765625 0.09375 4.359375 0.0664062 3.890625 0.015625 C 3.734375 0.00390625 3.53125 -0.00390625 3.28125 -0.015625 C 3.039062 -0.0351562 2.765625 -0.046875 2.453125 -0.046875 L 1.125 -0.015625 C 0.90625 -0.00390625 0.609375 0 0.234375 0 C 0.191406 0 0.171875 -0.0390625 0.171875 -0.125 C 0.171875 -0.21875 0.191406 -0.265625 0.234375 -0.265625 C 0.703125 -0.265625 1.050781 -0.296875 1.28125 -0.359375 C 1.519531 -0.429688 1.695312 -0.570312 1.8125 -0.78125 C 1.9375 -1 2.03125 -1.320312 2.09375 -1.75 L 3.875 -11.78125 C 3.9375 -12.15625 3.96875 -12.382812 3.96875 -12.46875 C 3.96875 -12.789062 3.863281 -13.003906 3.65625 -13.109375 C 3.457031 -13.222656 3.09375 -13.28125 2.5625 -13.28125 C 2.53125 -13.28125 2.515625 -13.320312 2.515625 -13.40625 C 2.515625 -13.488281 2.53125 -13.53125 2.5625 -13.53125 L 3.484375 -13.515625 C 4.035156 -13.484375 4.476562 -13.46875 4.8125 -13.46875 C 5.238281 -13.46875 5.675781 -13.488281 6.125 -13.53125 C 6.675781 -13.5625 7.050781 -13.578125 7.25 -13.578125 C 8.40625 -13.578125 9.410156 -13.347656 10.265625 -12.890625 C 11.128906 -12.441406 11.785156 -11.816406 12.234375 -11.015625 C 12.691406 -10.210938 12.921875 -9.289062 12.921875 -8.25 C 12.921875 -7.882812 12.890625 -7.46875 12.828125 -7 C 12.578125 -5.59375 12.0625 -4.351562 11.28125 -3.28125 C 10.5 -2.207031 9.5625 -1.375 8.46875 -0.78125 C 7.382812 -0.195312 6.265625 0.09375 5.109375 0.09375 Z M 4.984375 -0.21875 C 5.992188 -0.21875 6.925781 -0.460938 7.78125 -0.953125 C 8.644531 -1.441406 9.378906 -2.160156 9.984375 -3.109375 C 10.585938 -4.054688 11.003906 -5.191406 11.234375 -6.515625 C 11.335938 -7.078125 11.390625 -7.660156 11.390625 -8.265625 C 11.390625 -9.742188 11.039062 -10.945312 10.34375 -11.875 C 9.644531 -12.8125 8.632812 -13.28125 7.3125 -13.28125 C 6.582031 -13.28125 6.0625 -13.175781 5.75 -12.96875 C 5.4375 -12.769531 5.222656 -12.359375 5.109375 -11.734375 L 3.40625 -2 C 3.34375 -1.675781 3.3125 -1.453125 3.3125 -1.328125 C 3.3125 -0.929688 3.4375 -0.644531 3.6875 -0.46875 C 3.945312 -0.300781 4.378906 -0.21875 4.984375 -0.21875 Z M 4.984375 -0.21875 "/></g></g></g><g fill="#eae1d2" fill-opacity="1"><g transform="translate(38.81149, 226.158986)"><g><path d="M 7.125 -7.671875 C 7.125 -7.222656 6.890625 -6.789062 6.421875 -6.375 C 5.953125 -5.96875 5.320312 -5.609375 4.53125 -5.296875 C 3.75 -4.992188 2.90625 -4.773438 2 -4.640625 C 1.925781 -4.171875 1.890625 -3.769531 1.890625 -3.4375 C 1.890625 -2.539062 2.085938 -1.820312 2.484375 -1.28125 C 2.890625 -0.738281 3.460938 -0.46875 4.203125 -0.46875 C 5.015625 -0.46875 5.734375 -0.707031 6.359375 -1.1875 L 6.40625 -1.1875 C 6.445312 -1.1875 6.484375 -1.164062 6.515625 -1.125 C 6.554688 -1.082031 6.554688 -1.039062 6.515625 -1 C 5.503906 -0.15625 4.453125 0.265625 3.359375 0.265625 C 2.453125 0.265625 1.757812 -0.0234375 1.28125 -0.609375 C 0.8125 -1.203125 0.578125 -1.957031 0.578125 -2.875 C 0.578125 -3.195312 0.613281 -3.570312 0.6875 -4 C 0.820312 -4.738281 1.125 -5.460938 1.59375 -6.171875 C 2.070312 -6.890625 2.671875 -7.476562 3.390625 -7.9375 C 4.109375 -8.40625 4.851562 -8.640625 5.625 -8.640625 C 6.101562 -8.640625 6.472656 -8.550781 6.734375 -8.375 C 6.992188 -8.207031 7.125 -7.972656 7.125 -7.671875 Z M 4.671875 -8.0625 C 4.015625 -8.0625 3.457031 -7.765625 3 -7.171875 C 2.539062 -6.585938 2.226562 -5.84375 2.0625 -4.9375 C 3.070312 -5.113281 3.890625 -5.375 4.515625 -5.71875 C 5.140625 -6.0625 5.519531 -6.492188 5.65625 -7.015625 C 5.6875 -7.160156 5.703125 -7.257812 5.703125 -7.3125 C 5.703125 -7.5625 5.597656 -7.75 5.390625 -7.875 C 5.191406 -8 4.953125 -8.0625 4.671875 -8.0625 Z M 4.671875 -8.0625 "/></g></g></g><g fill="#eae1d2" fill-opacity="1"><g transform="translate(47.842319, 226.158986)"><g><path d="M 6.171875 -8.515625 C 6.867188 -8.515625 7.394531 -8.320312 7.75 -7.9375 C 8.113281 -7.550781 8.296875 -6.992188 8.296875 -6.265625 C 8.296875 -6.023438 8.273438 -5.765625 8.234375 -5.484375 C 8.097656 -4.515625 7.769531 -3.609375 7.25 -2.765625 C 6.726562 -1.921875 6.097656 -1.242188 5.359375 -0.734375 C 4.628906 -0.234375 3.890625 0.015625 3.140625 0.015625 C 2.617188 0.015625 2.207031 -0.00390625 1.90625 -0.046875 L 1.21875 3.859375 C 1.164062 4.097656 1.140625 4.300781 1.140625 4.46875 C 1.140625 4.71875 1.203125 4.898438 1.328125 5.015625 C 1.453125 5.140625 1.648438 5.203125 1.921875 5.203125 C 2.015625 5.203125 2.191406 5.1875 2.453125 5.15625 L 2.46875 5.15625 C 2.507812 5.15625 2.535156 5.191406 2.546875 5.265625 C 2.566406 5.335938 2.546875 5.378906 2.484375 5.390625 L -1.234375 5.953125 C -1.296875 5.972656 -1.332031 5.9375 -1.34375 5.84375 C -1.351562 5.757812 -1.332031 5.710938 -1.28125 5.703125 C -0.957031 5.640625 -0.71875 5.5625 -0.5625 5.46875 C -0.40625 5.375 -0.285156 5.222656 -0.203125 5.015625 C -0.128906 4.804688 -0.046875 4.46875 0.046875 4 L 1.890625 -6.28125 L 0.90625 -5.546875 L 0.859375 -5.515625 C 0.816406 -5.515625 0.773438 -5.546875 0.734375 -5.609375 C 0.703125 -5.679688 0.703125 -5.722656 0.734375 -5.734375 C 1.191406 -6.148438 1.601562 -6.484375 1.96875 -6.734375 L 2.25 -8.359375 C 2.25 -8.390625 2.347656 -8.492188 2.546875 -8.671875 C 2.753906 -8.847656 2.9375 -9.035156 3.09375 -9.234375 C 3.25 -9.441406 3.359375 -9.675781 3.421875 -9.9375 C 3.421875 -9.976562 3.457031 -10 3.53125 -10 C 3.5625 -10 3.59375 -9.988281 3.625 -9.96875 C 3.664062 -9.945312 3.675781 -9.921875 3.65625 -9.890625 L 3.25 -7.59375 C 4.300781 -8.207031 5.273438 -8.515625 6.171875 -8.515625 Z M 7 -4.765625 C 7.039062 -5.066406 7.0625 -5.363281 7.0625 -5.65625 C 7.0625 -7.039062 6.460938 -7.734375 5.265625 -7.734375 C 4.609375 -7.734375 3.90625 -7.523438 3.15625 -7.109375 L 2.0625 -0.953125 C 2.582031 -0.703125 3.144531 -0.578125 3.75 -0.578125 C 4.65625 -0.578125 5.378906 -0.957031 5.921875 -1.71875 C 6.472656 -2.488281 6.832031 -3.503906 7 -4.765625 Z M 7 -4.765625 "/></g></g></g><g fill="#eae1d2" fill-opacity="1"><g transform="translate(58.259066, 226.158986)"><g><path d="M 8.859375 -1.671875 C 8.867188 -1.679688 8.890625 -1.6875 8.921875 -1.6875 C 8.960938 -1.6875 9 -1.660156 9.03125 -1.609375 C 9.0625 -1.554688 9.0625 -1.519531 9.03125 -1.5 C 8.539062 -0.9375 8.101562 -0.515625 7.71875 -0.234375 C 7.332031 0.046875 6.960938 0.1875 6.609375 0.1875 C 6.359375 0.1875 6.171875 0.113281 6.046875 -0.03125 C 5.929688 -0.1875 5.875 -0.4375 5.875 -0.78125 C 5.875 -1.070312 5.914062 -1.453125 6 -1.921875 L 6.390625 -4.171875 C 5.722656 -2.835938 4.972656 -1.757812 4.140625 -0.9375 C 3.316406 -0.125 2.519531 0.28125 1.75 0.28125 C 0.851562 0.28125 0.40625 -0.253906 0.40625 -1.328125 C 0.40625 -1.441406 0.421875 -1.65625 0.453125 -1.96875 C 0.597656 -3 0.976562 -4.03125 1.59375 -5.0625 C 2.21875 -6.101562 2.945312 -6.957031 3.78125 -7.625 C 4.625 -8.300781 5.414062 -8.640625 6.15625 -8.640625 C 6.425781 -8.640625 6.691406 -8.585938 6.953125 -8.484375 C 7.210938 -8.390625 7.421875 -8.238281 7.578125 -8.03125 C 7.835938 -8.25 8.007812 -8.507812 8.09375 -8.8125 C 8.113281 -8.851562 8.164062 -8.863281 8.25 -8.84375 C 8.332031 -8.832031 8.367188 -8.816406 8.359375 -8.796875 L 7.109375 -1.921875 C 7.054688 -1.710938 7.03125 -1.519531 7.03125 -1.34375 C 7.03125 -0.894531 7.160156 -0.671875 7.421875 -0.671875 C 7.742188 -0.671875 8.222656 -1.003906 8.859375 -1.671875 Z M 2.53125 -0.78125 C 3.050781 -0.78125 3.601562 -1.046875 4.1875 -1.578125 C 4.769531 -2.109375 5.289062 -2.78125 5.75 -3.59375 C 6.21875 -4.414062 6.53125 -5.21875 6.6875 -6 C 6.726562 -6.1875 6.742188 -6.351562 6.734375 -6.5 C 6.734375 -6.925781 6.617188 -7.265625 6.390625 -7.515625 C 6.171875 -7.765625 5.835938 -7.890625 5.390625 -7.890625 C 4.890625 -7.867188 4.375 -7.640625 3.84375 -7.203125 C 3.3125 -6.765625 2.851562 -6.171875 2.46875 -5.421875 C 2.082031 -4.679688 1.820312 -3.851562 1.6875 -2.9375 C 1.644531 -2.625 1.625 -2.335938 1.625 -2.078125 C 1.625 -1.210938 1.925781 -0.78125 2.53125 -0.78125 Z M 2.53125 -0.78125 "/></g></g></g><g fill="#eae1d2" fill-opacity="1"><g transform="translate(69.260503, 226.158986)"><g><path d="M 6.265625 -8.546875 C 6.535156 -8.546875 6.800781 -8.445312 7.0625 -8.25 C 7.320312 -8.050781 7.453125 -7.8125 7.453125 -7.53125 C 7.453125 -7.320312 7.378906 -7.144531 7.234375 -7 C 7.097656 -6.851562 6.929688 -6.78125 6.734375 -6.78125 C 6.578125 -6.78125 6.453125 -6.816406 6.359375 -6.890625 C 6.265625 -6.960938 6.164062 -7.070312 6.0625 -7.21875 C 6.007812 -7.28125 5.945312 -7.34375 5.875 -7.40625 C 5.800781 -7.476562 5.71875 -7.515625 5.625 -7.515625 C 5.3125 -7.515625 4.929688 -7.09375 4.484375 -6.25 C 4.046875 -5.414062 3.628906 -4.414062 3.234375 -3.25 C 2.847656 -2.082031 2.570312 -1.050781 2.40625 -0.15625 C 2.382812 -0.0507812 2.3125 0.0234375 2.1875 0.078125 C 2.070312 0.140625 1.910156 0.171875 1.703125 0.171875 C 1.515625 0.171875 1.390625 0.160156 1.328125 0.140625 C 1.265625 0.117188 1.234375 0.0859375 1.234375 0.046875 L 1.34375 -0.453125 L 1.5625 -1.609375 L 2.28125 -5.609375 C 2.363281 -6.085938 2.40625 -6.460938 2.40625 -6.734375 C 2.40625 -7.378906 2.234375 -7.703125 1.890625 -7.703125 C 1.566406 -7.703125 1.125 -7.4375 0.5625 -6.90625 L 0.515625 -6.890625 C 0.472656 -6.890625 0.4375 -6.910156 0.40625 -6.953125 C 0.382812 -7.003906 0.378906 -7.046875 0.390625 -7.078125 C 0.835938 -7.566406 1.25 -7.929688 1.625 -8.171875 C 2 -8.421875 2.367188 -8.546875 2.734375 -8.546875 C 3.015625 -8.546875 3.222656 -8.453125 3.359375 -8.265625 C 3.503906 -8.078125 3.578125 -7.753906 3.578125 -7.296875 C 3.578125 -6.929688 3.519531 -6.382812 3.40625 -5.65625 L 2.9375 -3.1875 C 3.4375 -4.695312 3.976562 -5.96875 4.5625 -7 C 5.144531 -8.03125 5.710938 -8.546875 6.265625 -8.546875 Z M 6.265625 -8.546875 "/></g></g></g><g fill="#eae1d2" fill-opacity="1"><g transform="translate(78.22638, 226.158986)"><g><path d="M 6.28125 -8.296875 C 6.382812 -8.296875 6.4375 -8.242188 6.4375 -8.140625 C 6.4375 -8.023438 6.351562 -7.875 6.1875 -7.6875 C 6.03125 -7.5 5.878906 -7.40625 5.734375 -7.40625 C 5.660156 -7.40625 5.375 -7.4375 4.875 -7.5 C 4.382812 -7.5625 3.898438 -7.601562 3.421875 -7.625 L 2.46875 -2.25 C 2.425781 -2.019531 2.40625 -1.8125 2.40625 -1.625 C 2.40625 -1.257812 2.488281 -0.988281 2.65625 -0.8125 C 2.832031 -0.644531 3.101562 -0.5625 3.46875 -0.5625 C 3.84375 -0.5625 4.195312 -0.644531 4.53125 -0.8125 C 4.863281 -0.976562 5.203125 -1.210938 5.546875 -1.515625 L 5.5625 -1.515625 C 5.601562 -1.515625 5.648438 -1.492188 5.703125 -1.453125 C 5.753906 -1.410156 5.757812 -1.375 5.71875 -1.34375 C 5.070312 -0.78125 4.503906 -0.367188 4.015625 -0.109375 C 3.535156 0.140625 3.070312 0.265625 2.625 0.265625 C 2.207031 0.265625 1.859375 0.15625 1.578125 -0.0625 C 1.304688 -0.28125 1.171875 -0.628906 1.171875 -1.109375 C 1.171875 -1.191406 1.1875 -1.347656 1.21875 -1.578125 L 2.140625 -6.625 C 2.203125 -6.894531 2.234375 -7.125 2.234375 -7.3125 C 2.234375 -7.519531 2.175781 -7.65625 2.0625 -7.71875 C 1.945312 -7.78125 1.726562 -7.8125 1.40625 -7.8125 C 1.363281 -7.8125 1.34375 -7.847656 1.34375 -7.921875 C 1.34375 -7.953125 1.351562 -7.984375 1.375 -8.015625 C 1.394531 -8.054688 1.410156 -8.078125 1.421875 -8.078125 C 1.921875 -8.078125 2.347656 -8.234375 2.703125 -8.546875 C 3.066406 -8.867188 3.3125 -9.269531 3.4375 -9.75 C 3.46875 -9.789062 3.535156 -9.8125 3.640625 -9.8125 C 3.785156 -9.8125 3.84375 -9.789062 3.8125 -9.75 L 3.53125 -8.140625 C 4.238281 -8.171875 4.910156 -8.207031 5.546875 -8.25 Z M 6.28125 -8.296875 "/></g></g></g><g fill="#eae1d2" fill-opacity="1"><g transform="translate(86.217766, 226.158986)"><g><path d="M 8.859375 -1.671875 C 8.867188 -1.679688 8.890625 -1.6875 8.921875 -1.6875 C 8.960938 -1.6875 9 -1.660156 9.03125 -1.609375 C 9.0625 -1.554688 9.0625 -1.519531 9.03125 -1.5 C 8.539062 -0.9375 8.101562 -0.515625 7.71875 -0.234375 C 7.332031 0.046875 6.960938 0.1875 6.609375 0.1875 C 6.359375 0.1875 6.171875 0.113281 6.046875 -0.03125 C 5.929688 -0.1875 5.875 -0.4375 5.875 -0.78125 C 5.875 -1.070312 5.914062 -1.453125 6 -1.921875 L 6.390625 -4.171875 C 5.722656 -2.835938 4.972656 -1.757812 4.140625 -0.9375 C 3.316406 -0.125 2.519531 0.28125 1.75 0.28125 C 0.851562 0.28125 0.40625 -0.253906 0.40625 -1.328125 C 0.40625 -1.441406 0.421875 -1.65625 0.453125 -1.96875 C 0.597656 -3 0.976562 -4.03125 1.59375 -5.0625 C 2.21875 -6.101562 2.945312 -6.957031 3.78125 -7.625 C 4.625 -8.300781 5.414062 -8.640625 6.15625 -8.640625 C 6.425781 -8.640625 6.691406 -8.585938 6.953125 -8.484375 C 7.210938 -8.390625 7.421875 -8.238281 7.578125 -8.03125 C 7.835938 -8.25 8.007812 -8.507812 8.09375 -8.8125 C 8.113281 -8.851562 8.164062 -8.863281 8.25 -8.84375 C 8.332031 -8.832031 8.367188 -8.816406 8.359375 -8.796875 L 7.109375 -1.921875 C 7.054688 -1.710938 7.03125 -1.519531 7.03125 -1.34375 C 7.03125 -0.894531 7.160156 -0.671875 7.421875 -0.671875 C 7.742188 -0.671875 8.222656 -1.003906 8.859375 -1.671875 Z M 2.53125 -0.78125 C 3.050781 -0.78125 3.601562 -1.046875 4.1875 -1.578125 C 4.769531 -2.109375 5.289062 -2.78125 5.75 -3.59375 C 6.21875 -4.414062 6.53125 -5.21875 6.6875 -6 C 6.726562 -6.1875 6.742188 -6.351562 6.734375 -6.5 C 6.734375 -6.925781 6.617188 -7.265625 6.390625 -7.515625 C 6.171875 -7.765625 5.835938 -7.890625 5.390625 -7.890625 C 4.890625 -7.867188 4.375 -7.640625 3.84375 -7.203125 C 3.3125 -6.765625 2.851562 -6.171875 2.46875 -5.421875 C 2.082031 -4.679688 1.820312 -3.851562 1.6875 -2.9375 C 1.644531 -2.625 1.625 -2.335938 1.625 -2.078125 C 1.625 -1.210938 1.925781 -0.78125 2.53125 -0.78125 Z M 2.53125 -0.78125 "/></g></g></g><g fill="#eae1d2" fill-opacity="1"><g transform="translate(97.219202, 226.158986)"><g><path d="M 14.09375 -1.671875 C 14.125 -1.691406 14.15625 -1.703125 14.1875 -1.703125 C 14.226562 -1.703125 14.265625 -1.675781 14.296875 -1.625 C 14.328125 -1.582031 14.316406 -1.539062 14.265625 -1.5 C 13.773438 -0.914062 13.335938 -0.488281 12.953125 -0.21875 C 12.578125 0.0507812 12.207031 0.1875 11.84375 0.1875 C 11.582031 0.1875 11.394531 0.113281 11.28125 -0.03125 C 11.164062 -0.1875 11.109375 -0.429688 11.109375 -0.765625 C 11.109375 -1.066406 11.148438 -1.453125 11.234375 -1.921875 L 11.875 -5.375 C 11.9375 -5.75 11.96875 -6.140625 11.96875 -6.546875 C 11.96875 -6.960938 11.898438 -7.273438 11.765625 -7.484375 C 11.628906 -7.691406 11.414062 -7.796875 11.125 -7.796875 C 10.675781 -7.796875 10.210938 -7.503906 9.734375 -6.921875 C 9.253906 -6.335938 8.789062 -5.484375 8.34375 -4.359375 C 7.90625 -3.242188 7.539062 -1.925781 7.25 -0.40625 L 7.21875 -0.15625 C 7.195312 -0.0507812 7.128906 0.0234375 7.015625 0.078125 C 6.898438 0.140625 6.742188 0.171875 6.546875 0.171875 C 6.335938 0.171875 6.203125 0.160156 6.140625 0.140625 C 6.078125 0.117188 6.046875 0.0859375 6.046875 0.046875 L 6.15625 -0.453125 L 6.359375 -1.609375 L 7.078125 -5.375 C 7.140625 -5.757812 7.171875 -6.125 7.171875 -6.46875 C 7.171875 -7.351562 6.898438 -7.796875 6.359375 -7.796875 C 5.921875 -7.796875 5.453125 -7.5 4.953125 -6.90625 C 4.460938 -6.3125 4 -5.453125 3.5625 -4.328125 C 3.132812 -3.203125 2.785156 -1.882812 2.515625 -0.375 L 2.46875 -0.15625 C 2.425781 0.0625 2.195312 0.171875 1.78125 0.171875 C 1.570312 0.171875 1.4375 0.160156 1.375 0.140625 C 1.3125 0.117188 1.28125 0.0859375 1.28125 0.046875 C 1.28125 0.0234375 1.335938 -0.269531 1.453125 -0.84375 L 1.578125 -1.5 L 2.484375 -6.4375 C 2.535156 -6.644531 2.5625 -6.835938 2.5625 -7.015625 C 2.5625 -7.472656 2.414062 -7.703125 2.125 -7.703125 C 1.945312 -7.703125 1.722656 -7.613281 1.453125 -7.4375 C 1.191406 -7.269531 0.914062 -7.03125 0.625 -6.71875 C 0.613281 -6.695312 0.59375 -6.6875 0.5625 -6.6875 C 0.519531 -6.6875 0.476562 -6.710938 0.4375 -6.765625 C 0.40625 -6.816406 0.410156 -6.859375 0.453125 -6.890625 C 0.941406 -7.453125 1.390625 -7.867188 1.796875 -8.140625 C 2.210938 -8.410156 2.609375 -8.546875 2.984375 -8.546875 C 3.234375 -8.546875 3.414062 -8.46875 3.53125 -8.3125 C 3.644531 -8.164062 3.703125 -7.925781 3.703125 -7.59375 C 3.703125 -7.21875 3.664062 -6.84375 3.59375 -6.46875 L 3.15625 -4.03125 C 3.664062 -5.46875 4.265625 -6.59375 4.953125 -7.40625 C 5.640625 -8.226562 6.347656 -8.640625 7.078125 -8.640625 C 7.515625 -8.640625 7.835938 -8.515625 8.046875 -8.265625 C 8.253906 -8.015625 8.359375 -7.613281 8.359375 -7.0625 C 8.359375 -6.71875 8.316406 -6.289062 8.234375 -5.78125 L 7.890625 -3.875 C 8.390625 -5.375 8.984375 -6.539062 9.671875 -7.375 C 10.367188 -8.21875 11.09375 -8.640625 11.84375 -8.640625 C 12.289062 -8.640625 12.625 -8.507812 12.84375 -8.25 C 13.0625 -7.988281 13.171875 -7.578125 13.171875 -7.015625 C 13.171875 -6.671875 13.125 -6.257812 13.03125 -5.78125 L 12.34375 -1.921875 C 12.300781 -1.691406 12.28125 -1.5 12.28125 -1.34375 C 12.28125 -0.894531 12.410156 -0.671875 12.671875 -0.671875 C 12.984375 -0.671875 13.457031 -1.003906 14.09375 -1.671875 Z M 14.09375 -1.671875 "/></g></g></g><g fill="#eae1d2" fill-opacity="1"><g transform="translate(113.461159, 226.158986)"><g><path d="M 7.125 -7.671875 C 7.125 -7.222656 6.890625 -6.789062 6.421875 -6.375 C 5.953125 -5.96875 5.320312 -5.609375 4.53125 -5.296875 C 3.75 -4.992188 2.90625 -4.773438 2 -4.640625 C 1.925781 -4.171875 1.890625 -3.769531 1.890625 -3.4375 C 1.890625 -2.539062 2.085938 -1.820312 2.484375 -1.28125 C 2.890625 -0.738281 3.460938 -0.46875 4.203125 -0.46875 C 5.015625 -0.46875 5.734375 -0.707031 6.359375 -1.1875 L 6.40625 -1.1875 C 6.445312 -1.1875 6.484375 -1.164062 6.515625 -1.125 C 6.554688 -1.082031 6.554688 -1.039062 6.515625 -1 C 5.503906 -0.15625 4.453125 0.265625 3.359375 0.265625 C 2.453125 0.265625 1.757812 -0.0234375 1.28125 -0.609375 C 0.8125 -1.203125 0.578125 -1.957031 0.578125 -2.875 C 0.578125 -3.195312 0.613281 -3.570312 0.6875 -4 C 0.820312 -4.738281 1.125 -5.460938 1.59375 -6.171875 C 2.070312 -6.890625 2.671875 -7.476562 3.390625 -7.9375 C 4.109375 -8.40625 4.851562 -8.640625 5.625 -8.640625 C 6.101562 -8.640625 6.472656 -8.550781 6.734375 -8.375 C 6.992188 -8.207031 7.125 -7.972656 7.125 -7.671875 Z M 4.671875 -8.0625 C 4.015625 -8.0625 3.457031 -7.765625 3 -7.171875 C 2.539062 -6.585938 2.226562 -5.84375 2.0625 -4.9375 C 3.070312 -5.113281 3.890625 -5.375 4.515625 -5.71875 C 5.140625 -6.0625 5.519531 -6.492188 5.65625 -7.015625 C 5.6875 -7.160156 5.703125 -7.257812 5.703125 -7.3125 C 5.703125 -7.5625 5.597656 -7.75 5.390625 -7.875 C 5.191406 -8 4.953125 -8.0625 4.671875 -8.0625 Z M 4.671875 -8.0625 "/></g></g></g><g fill="#eae1d2" fill-opacity="1"><g transform="translate(122.491988, 226.158986)"><g><path d="M 9.546875 -1.671875 C 9.578125 -1.691406 9.597656 -1.703125 9.609375 -1.703125 C 9.660156 -1.703125 9.703125 -1.675781 9.734375 -1.625 C 9.765625 -1.582031 9.757812 -1.539062 9.71875 -1.5 C 9.226562 -0.914062 8.789062 -0.488281 8.40625 -0.21875 C 8.03125 0.0507812 7.660156 0.1875 7.296875 0.1875 C 7.035156 0.1875 6.84375 0.113281 6.71875 -0.03125 C 6.601562 -0.1875 6.546875 -0.4375 6.546875 -0.78125 C 6.546875 -1.070312 6.585938 -1.453125 6.671875 -1.921875 L 7.296875 -5.375 C 7.378906 -5.832031 7.421875 -6.222656 7.421875 -6.546875 C 7.421875 -7.378906 7.113281 -7.796875 6.5 -7.796875 C 6.019531 -7.796875 5.523438 -7.492188 5.015625 -6.890625 C 4.503906 -6.285156 4.023438 -5.398438 3.578125 -4.234375 C 3.128906 -3.066406 2.765625 -1.707031 2.484375 -0.15625 C 2.460938 -0.0507812 2.390625 0.0234375 2.265625 0.078125 C 2.140625 0.140625 1.976562 0.171875 1.78125 0.171875 C 1.570312 0.171875 1.4375 0.160156 1.375 0.140625 C 1.3125 0.117188 1.28125 0.0859375 1.28125 0.046875 L 1.359375 -0.453125 C 1.453125 -0.796875 1.535156 -1.179688 1.609375 -1.609375 L 2.484375 -6.4375 C 2.535156 -6.644531 2.5625 -6.835938 2.5625 -7.015625 C 2.5625 -7.472656 2.414062 -7.703125 2.125 -7.703125 C 1.945312 -7.703125 1.722656 -7.613281 1.453125 -7.4375 C 1.191406 -7.269531 0.914062 -7.03125 0.625 -6.71875 C 0.613281 -6.695312 0.59375 -6.6875 0.5625 -6.6875 C 0.519531 -6.6875 0.476562 -6.710938 0.4375 -6.765625 C 0.40625 -6.816406 0.410156 -6.859375 0.453125 -6.890625 C 0.941406 -7.453125 1.390625 -7.867188 1.796875 -8.140625 C 2.210938 -8.410156 2.609375 -8.546875 2.984375 -8.546875 C 3.234375 -8.546875 3.414062 -8.46875 3.53125 -8.3125 C 3.644531 -8.164062 3.703125 -7.925781 3.703125 -7.59375 C 3.703125 -7.21875 3.664062 -6.84375 3.59375 -6.46875 L 3.140625 -3.859375 C 3.660156 -5.359375 4.273438 -6.53125 4.984375 -7.375 C 5.691406 -8.21875 6.4375 -8.640625 7.21875 -8.640625 C 7.6875 -8.640625 8.035156 -8.507812 8.265625 -8.25 C 8.503906 -7.988281 8.625 -7.578125 8.625 -7.015625 C 8.625 -6.671875 8.578125 -6.257812 8.484375 -5.78125 L 7.78125 -1.921875 C 7.726562 -1.710938 7.703125 -1.519531 7.703125 -1.34375 C 7.703125 -0.894531 7.847656 -0.671875 8.140625 -0.671875 C 8.441406 -0.671875 8.910156 -1.003906 9.546875 -1.671875 Z M 9.546875 -1.671875 "/></g></g></g><g fill="#eae1d2" fill-opacity="1"><g transform="translate(134.164739, 226.158986)"><g><path d="M 6.28125 -8.296875 C 6.382812 -8.296875 6.4375 -8.242188 6.4375 -8.140625 C 6.4375 -8.023438 6.351562 -7.875 6.1875 -7.6875 C 6.03125 -7.5 5.878906 -7.40625 5.734375 -7.40625 C 5.660156 -7.40625 5.375 -7.4375 4.875 -7.5 C 4.382812 -7.5625 3.898438 -7.601562 3.421875 -7.625 L 2.46875 -2.25 C 2.425781 -2.019531 2.40625 -1.8125 2.40625 -1.625 C 2.40625 -1.257812 2.488281 -0.988281 2.65625 -0.8125 C 2.832031 -0.644531 3.101562 -0.5625 3.46875 -0.5625 C 3.84375 -0.5625 4.195312 -0.644531 4.53125 -0.8125 C 4.863281 -0.976562 5.203125 -1.210938 5.546875 -1.515625 L 5.5625 -1.515625 C 5.601562 -1.515625 5.648438 -1.492188 5.703125 -1.453125 C 5.753906 -1.410156 5.757812 -1.375 5.71875 -1.34375 C 5.070312 -0.78125 4.503906 -0.367188 4.015625 -0.109375 C 3.535156 0.140625 3.070312 0.265625 2.625 0.265625 C 2.207031 0.265625 1.859375 0.15625 1.578125 -0.0625 C 1.304688 -0.28125 1.171875 -0.628906 1.171875 -1.109375 C 1.171875 -1.191406 1.1875 -1.347656 1.21875 -1.578125 L 2.140625 -6.625 C 2.203125 -6.894531 2.234375 -7.125 2.234375 -7.3125 C 2.234375 -7.519531 2.175781 -7.65625 2.0625 -7.71875 C 1.945312 -7.78125 1.726562 -7.8125 1.40625 -7.8125 C 1.363281 -7.8125 1.34375 -7.847656 1.34375 -7.921875 C 1.34375 -7.953125 1.351562 -7.984375 1.375 -8.015625 C 1.394531 -8.054688 1.410156 -8.078125 1.421875 -8.078125 C 1.921875 -8.078125 2.347656 -8.234375 2.703125 -8.546875 C 3.066406 -8.867188 3.3125 -9.269531 3.4375 -9.75 C 3.46875 -9.789062 3.535156 -9.8125 3.640625 -9.8125 C 3.785156 -9.8125 3.84375 -9.789062 3.8125 -9.75 L 3.53125 -8.140625 C 4.238281 -8.171875 4.910156 -8.207031 5.546875 -8.25 Z M 6.28125 -8.296875 "/></g></g></g><g fill="#eae1d2" fill-opacity="1"><g transform="translate(142.156128, 226.158986)"><g><path d="M 3.328125 0.296875 C 2.484375 0.296875 1.816406 -0.00390625 1.328125 -0.609375 C 0.847656 -1.210938 0.609375 -2.003906 0.609375 -2.984375 C 0.609375 -3.429688 0.644531 -3.828125 0.71875 -4.171875 C 0.875 -5.015625 1.175781 -5.773438 1.625 -6.453125 C 2.070312 -7.128906 2.613281 -7.660156 3.25 -8.046875 C 3.882812 -8.441406 4.554688 -8.640625 5.265625 -8.640625 C 6.160156 -8.640625 6.851562 -8.335938 7.34375 -7.734375 C 7.832031 -7.140625 8.078125 -6.367188 8.078125 -5.421875 C 8.078125 -5.015625 8.035156 -4.597656 7.953125 -4.171875 C 7.773438 -3.296875 7.445312 -2.515625 6.96875 -1.828125 C 6.5 -1.140625 5.941406 -0.613281 5.296875 -0.25 C 4.648438 0.113281 3.992188 0.296875 3.328125 0.296875 Z M 4.09375 -0.234375 C 4.695312 -0.234375 5.242188 -0.5 5.734375 -1.03125 C 6.222656 -1.570312 6.554688 -2.304688 6.734375 -3.234375 C 6.804688 -3.691406 6.84375 -4.109375 6.84375 -4.484375 C 6.84375 -5.484375 6.648438 -6.335938 6.265625 -7.046875 C 5.890625 -7.765625 5.347656 -8.125 4.640625 -8.125 C 4.015625 -8.125 3.457031 -7.851562 2.96875 -7.3125 C 2.476562 -6.769531 2.140625 -6.035156 1.953125 -5.109375 C 1.859375 -4.679688 1.8125 -4.242188 1.8125 -3.796875 C 1.8125 -2.828125 2.015625 -1.988281 2.421875 -1.28125 C 2.828125 -0.582031 3.382812 -0.234375 4.09375 -0.234375 Z M 4.09375 -0.234375 "/></g></g></g><g fill="#eae1d2" fill-opacity="1"><g transform="translate(152.377985, 226.158986)"><g><path d="M 2.1875 0.234375 C 1.625 0.234375 1.144531 0.101562 0.75 -0.15625 C 0.351562 -0.414062 0.179688 -0.734375 0.234375 -1.109375 C 0.253906 -1.296875 0.328125 -1.441406 0.453125 -1.546875 C 0.585938 -1.648438 0.734375 -1.703125 0.890625 -1.703125 C 1.015625 -1.703125 1.117188 -1.660156 1.203125 -1.578125 C 1.285156 -1.492188 1.382812 -1.347656 1.5 -1.140625 C 1.664062 -0.859375 1.835938 -0.632812 2.015625 -0.46875 C 2.203125 -0.3125 2.476562 -0.234375 2.84375 -0.234375 C 3.632812 -0.234375 4.09375 -0.675781 4.21875 -1.5625 C 4.238281 -1.632812 4.25 -1.726562 4.25 -1.84375 C 4.25 -2.257812 4.128906 -2.617188 3.890625 -2.921875 C 3.660156 -3.222656 3.300781 -3.578125 2.8125 -3.984375 C 2.332031 -4.367188 1.972656 -4.707031 1.734375 -5 C 1.503906 -5.300781 1.390625 -5.660156 1.390625 -6.078125 C 1.390625 -6.148438 1.398438 -6.273438 1.421875 -6.453125 C 1.554688 -7.097656 1.898438 -7.613281 2.453125 -8 C 3.015625 -8.382812 3.632812 -8.578125 4.3125 -8.578125 C 4.800781 -8.578125 5.210938 -8.484375 5.546875 -8.296875 C 5.890625 -8.109375 6.0625 -7.867188 6.0625 -7.578125 C 6.0625 -7.359375 5.992188 -7.191406 5.859375 -7.078125 C 5.722656 -6.960938 5.566406 -6.90625 5.390625 -6.90625 C 5.234375 -6.90625 5.097656 -6.945312 4.984375 -7.03125 C 4.878906 -7.125 4.765625 -7.253906 4.640625 -7.421875 C 4.472656 -7.660156 4.3125 -7.832031 4.15625 -7.9375 C 4.007812 -8.039062 3.800781 -8.09375 3.53125 -8.09375 C 3.1875 -8.09375 2.90625 -7.992188 2.6875 -7.796875 C 2.476562 -7.609375 2.375 -7.328125 2.375 -6.953125 C 2.375 -6.554688 2.492188 -6.203125 2.734375 -5.890625 C 2.972656 -5.585938 3.328125 -5.238281 3.796875 -4.84375 C 4.296875 -4.394531 4.664062 -4.015625 4.90625 -3.703125 C 5.144531 -3.398438 5.265625 -3.03125 5.265625 -2.59375 C 5.265625 -2.132812 5.125 -1.679688 4.84375 -1.234375 C 4.570312 -0.796875 4.195312 -0.441406 3.71875 -0.171875 C 3.25 0.0976562 2.738281 0.234375 2.1875 0.234375 Z M 2.1875 0.234375 "/></g></g></g><g fill="#eae1d2" fill-opacity="1"><g transform="translate(160.520968, 226.158986)"><g/></g></g><g fill="#eae1d2" fill-opacity="1"><g transform="translate(167.191405, 226.158986)"><g><path d="M 7.125 -7.671875 C 7.125 -7.222656 6.890625 -6.789062 6.421875 -6.375 C 5.953125 -5.96875 5.320312 -5.609375 4.53125 -5.296875 C 3.75 -4.992188 2.90625 -4.773438 2 -4.640625 C 1.925781 -4.171875 1.890625 -3.769531 1.890625 -3.4375 C 1.890625 -2.539062 2.085938 -1.820312 2.484375 -1.28125 C 2.890625 -0.738281 3.460938 -0.46875 4.203125 -0.46875 C 5.015625 -0.46875 5.734375 -0.707031 6.359375 -1.1875 L 6.40625 -1.1875 C 6.445312 -1.1875 6.484375 -1.164062 6.515625 -1.125 C 6.554688 -1.082031 6.554688 -1.039062 6.515625 -1 C 5.503906 -0.15625 4.453125 0.265625 3.359375 0.265625 C 2.453125 0.265625 1.757812 -0.0234375 1.28125 -0.609375 C 0.8125 -1.203125 0.578125 -1.957031 0.578125 -2.875 C 0.578125 -3.195312 0.613281 -3.570312 0.6875 -4 C 0.820312 -4.738281 1.125 -5.460938 1.59375 -6.171875 C 2.070312 -6.890625 2.671875 -7.476562 3.390625 -7.9375 C 4.109375 -8.40625 4.851562 -8.640625 5.625 -8.640625 C 6.101562 -8.640625 6.472656 -8.550781 6.734375 -8.375 C 6.992188 -8.207031 7.125 -7.972656 7.125 -7.671875 Z M 4.671875 -8.0625 C 4.015625 -8.0625 3.457031 -7.765625 3 -7.171875 C 2.539062 -6.585938 2.226562 -5.84375 2.0625 -4.9375 C 3.070312 -5.113281 3.890625 -5.375 4.515625 -5.71875 C 5.140625 -6.0625 5.519531 -6.492188 5.65625 -7.015625 C 5.6875 -7.160156 5.703125 -7.257812 5.703125 -7.3125 C 5.703125 -7.5625 5.597656 -7.75 5.390625 -7.875 C 5.191406 -8 4.953125 -8.0625 4.671875 -8.0625 Z M 4.671875 -8.0625 "/></g></g></g><g fill="#eae1d2" fill-opacity="1"><g transform="translate(176.222234, 226.158986)"><g><path d="M 9.546875 -1.671875 C 9.578125 -1.691406 9.597656 -1.703125 9.609375 -1.703125 C 9.660156 -1.703125 9.703125 -1.675781 9.734375 -1.625 C 9.765625 -1.582031 9.757812 -1.539062 9.71875 -1.5 C 9.226562 -0.914062 8.789062 -0.488281 8.40625 -0.21875 C 8.03125 0.0507812 7.660156 0.1875 7.296875 0.1875 C 7.035156 0.1875 6.84375 0.113281 6.71875 -0.03125 C 6.601562 -0.1875 6.546875 -0.4375 6.546875 -0.78125 C 6.546875 -1.070312 6.585938 -1.453125 6.671875 -1.921875 L 7.296875 -5.375 C 7.378906 -5.832031 7.421875 -6.222656 7.421875 -6.546875 C 7.421875 -7.378906 7.113281 -7.796875 6.5 -7.796875 C 6.019531 -7.796875 5.523438 -7.492188 5.015625 -6.890625 C 4.503906 -6.285156 4.023438 -5.398438 3.578125 -4.234375 C 3.128906 -3.066406 2.765625 -1.707031 2.484375 -0.15625 C 2.460938 -0.0507812 2.390625 0.0234375 2.265625 0.078125 C 2.140625 0.140625 1.976562 0.171875 1.78125 0.171875 C 1.570312 0.171875 1.4375 0.160156 1.375 0.140625 C 1.3125 0.117188 1.28125 0.0859375 1.28125 0.046875 L 1.359375 -0.453125 C 1.453125 -0.796875 1.535156 -1.179688 1.609375 -1.609375 L 2.484375 -6.4375 C 2.535156 -6.644531 2.5625 -6.835938 2.5625 -7.015625 C 2.5625 -7.472656 2.414062 -7.703125 2.125 -7.703125 C 1.945312 -7.703125 1.722656 -7.613281 1.453125 -7.4375 C 1.191406 -7.269531 0.914062 -7.03125 0.625 -6.71875 C 0.613281 -6.695312 0.59375 -6.6875 0.5625 -6.6875 C 0.519531 -6.6875 0.476562 -6.710938 0.4375 -6.765625 C 0.40625 -6.816406 0.410156 -6.859375 0.453125 -6.890625 C 0.941406 -7.453125 1.390625 -7.867188 1.796875 -8.140625 C 2.210938 -8.410156 2.609375 -8.546875 2.984375 -8.546875 C 3.234375 -8.546875 3.414062 -8.46875 3.53125 -8.3125 C 3.644531 -8.164062 3.703125 -7.925781 3.703125 -7.59375 C 3.703125 -7.21875 3.664062 -6.84375 3.59375 -6.46875 L 3.140625 -3.859375 C 3.660156 -5.359375 4.273438 -6.53125 4.984375 -7.375 C 5.691406 -8.21875 6.4375 -8.640625 7.21875 -8.640625 C 7.6875 -8.640625 8.035156 -8.507812 8.265625 -8.25 C 8.503906 -7.988281 8.625 -7.578125 8.625 -7.015625 C 8.625 -6.671875 8.578125 -6.257812 8.484375 -5.78125 L 7.78125 -1.921875 C 7.726562 -1.710938 7.703125 -1.519531 7.703125 -1.34375 C 7.703125 -0.894531 7.847656 -0.671875 8.140625 -0.671875 C 8.441406 -0.671875 8.910156 -1.003906 9.546875 -1.671875 Z M 9.546875 -1.671875 "/></g></g></g><g fill="#eae1d2" fill-opacity="1"><g transform="translate(187.894985, 226.158986)"><g/></g></g><g fill="#eae1d2" fill-opacity="1"><g transform="translate(194.565421, 226.158986)"><g><path d="M 0.28125 0 C 0.238281 0 0.21875 -0.0390625 0.21875 -0.125 C 0.21875 -0.21875 0.238281 -0.265625 0.28125 -0.265625 C 0.738281 -0.265625 1.082031 -0.296875 1.3125 -0.359375 C 1.550781 -0.429688 1.726562 -0.570312 1.84375 -0.78125 C 1.957031 -1 2.054688 -1.320312 2.140625 -1.75 L 3.890625 -11.78125 C 3.953125 -12.03125 3.984375 -12.269531 3.984375 -12.5 C 3.984375 -12.800781 3.882812 -13.003906 3.6875 -13.109375 C 3.5 -13.222656 3.132812 -13.28125 2.59375 -13.28125 C 2.570312 -13.28125 2.5625 -13.320312 2.5625 -13.40625 C 2.5625 -13.488281 2.570312 -13.53125 2.59375 -13.53125 L 3.46875 -13.515625 C 3.988281 -13.484375 4.414062 -13.46875 4.75 -13.46875 C 4.90625 -13.46875 5.242188 -13.484375 5.765625 -13.515625 C 6.421875 -13.566406 6.96875 -13.59375 7.40625 -13.59375 C 8.476562 -13.59375 9.351562 -13.335938 10.03125 -12.828125 C 10.71875 -12.328125 11.0625 -11.597656 11.0625 -10.640625 C 11.0625 -10.359375 11.035156 -10.082031 10.984375 -9.8125 C 10.816406 -8.90625 10.441406 -8.140625 9.859375 -7.515625 C 9.273438 -6.890625 8.601562 -6.425781 7.84375 -6.125 C 7.09375 -5.820312 6.363281 -5.671875 5.65625 -5.671875 C 5.289062 -5.671875 4.992188 -5.707031 4.765625 -5.78125 C 4.734375 -5.78125 4.71875 -5.8125 4.71875 -5.875 C 4.71875 -5.914062 4.734375 -5.960938 4.765625 -6.015625 C 4.796875 -6.078125 4.820312 -6.097656 4.84375 -6.078125 C 5.03125 -6.023438 5.25 -6 5.5 -6 C 6.070312 -6 6.632812 -6.117188 7.1875 -6.359375 C 7.75 -6.609375 8.234375 -6.988281 8.640625 -7.5 C 9.054688 -8.007812 9.335938 -8.632812 9.484375 -9.375 C 9.546875 -9.664062 9.578125 -9.976562 9.578125 -10.3125 C 9.578125 -11.226562 9.320312 -11.953125 8.8125 -12.484375 C 8.3125 -13.015625 7.691406 -13.28125 6.953125 -13.28125 C 6.472656 -13.28125 6.128906 -13.25 5.921875 -13.1875 C 5.710938 -13.132812 5.550781 -13 5.4375 -12.78125 C 5.320312 -12.570312 5.210938 -12.222656 5.109375 -11.734375 L 3.359375 -1.75 C 3.316406 -1.476562 3.296875 -1.25 3.296875 -1.0625 C 3.296875 -0.738281 3.390625 -0.523438 3.578125 -0.421875 C 3.773438 -0.316406 4.140625 -0.265625 4.671875 -0.265625 C 4.722656 -0.265625 4.75 -0.21875 4.75 -0.125 C 4.75 -0.0390625 4.722656 0 4.671875 0 C 4.296875 0 4.003906 -0.00390625 3.796875 -0.015625 L 2.421875 -0.046875 L 1.140625 -0.015625 C 0.929688 -0.00390625 0.644531 0 0.28125 0 Z M 0.28125 0 "/></g></g></g><g fill="#eae1d2" fill-opacity="1"><g transform="translate(207.06105, 226.158986)"><g><path d="M 8.859375 -1.671875 C 8.867188 -1.679688 8.890625 -1.6875 8.921875 -1.6875 C 8.960938 -1.6875 9 -1.660156 9.03125 -1.609375 C 9.0625 -1.554688 9.0625 -1.519531 9.03125 -1.5 C 8.539062 -0.9375 8.101562 -0.515625 7.71875 -0.234375 C 7.332031 0.046875 6.960938 0.1875 6.609375 0.1875 C 6.359375 0.1875 6.171875 0.113281 6.046875 -0.03125 C 5.929688 -0.1875 5.875 -0.4375 5.875 -0.78125 C 5.875 -1.070312 5.914062 -1.453125 6 -1.921875 L 6.390625 -4.171875 C 5.722656 -2.835938 4.972656 -1.757812 4.140625 -0.9375 C 3.316406 -0.125 2.519531 0.28125 1.75 0.28125 C 0.851562 0.28125 0.40625 -0.253906 0.40625 -1.328125 C 0.40625 -1.441406 0.421875 -1.65625 0.453125 -1.96875 C 0.597656 -3 0.976562 -4.03125 1.59375 -5.0625 C 2.21875 -6.101562 2.945312 -6.957031 3.78125 -7.625 C 4.625 -8.300781 5.414062 -8.640625 6.15625 -8.640625 C 6.425781 -8.640625 6.691406 -8.585938 6.953125 -8.484375 C 7.210938 -8.390625 7.421875 -8.238281 7.578125 -8.03125 C 7.835938 -8.25 8.007812 -8.507812 8.09375 -8.8125 C 8.113281 -8.851562 8.164062 -8.863281 8.25 -8.84375 C 8.332031 -8.832031 8.367188 -8.816406 8.359375 -8.796875 L 7.109375 -1.921875 C 7.054688 -1.710938 7.03125 -1.519531 7.03125 -1.34375 C 7.03125 -0.894531 7.160156 -0.671875 7.421875 -0.671875 C 7.742188 -0.671875 8.222656 -1.003906 8.859375 -1.671875 Z M 2.53125 -0.78125 C 3.050781 -0.78125 3.601562 -1.046875 4.1875 -1.578125 C 4.769531 -2.109375 5.289062 -2.78125 5.75 -3.59375 C 6.21875 -4.414062 6.53125 -5.21875 6.6875 -6 C 6.726562 -6.1875 6.742188 -6.351562 6.734375 -6.5 C 6.734375 -6.925781 6.617188 -7.265625 6.390625 -7.515625 C 6.171875 -7.765625 5.835938 -7.890625 5.390625 -7.890625 C 4.890625 -7.867188 4.375 -7.640625 3.84375 -7.203125 C 3.3125 -6.765625 2.851562 -6.171875 2.46875 -5.421875 C 2.082031 -4.679688 1.820312 -3.851562 1.6875 -2.9375 C 1.644531 -2.625 1.625 -2.335938 1.625 -2.078125 C 1.625 -1.210938 1.925781 -0.78125 2.53125 -0.78125 Z M 2.53125 -0.78125 "/></g></g></g><g fill="#eae1d2" fill-opacity="1"><g transform="translate(218.062487, 226.158986)"><g><path d="M 6.265625 -8.546875 C 6.535156 -8.546875 6.800781 -8.445312 7.0625 -8.25 C 7.320312 -8.050781 7.453125 -7.8125 7.453125 -7.53125 C 7.453125 -7.320312 7.378906 -7.144531 7.234375 -7 C 7.097656 -6.851562 6.929688 -6.78125 6.734375 -6.78125 C 6.578125 -6.78125 6.453125 -6.816406 6.359375 -6.890625 C 6.265625 -6.960938 6.164062 -7.070312 6.0625 -7.21875 C 6.007812 -7.28125 5.945312 -7.34375 5.875 -7.40625 C 5.800781 -7.476562 5.71875 -7.515625 5.625 -7.515625 C 5.3125 -7.515625 4.929688 -7.09375 4.484375 -6.25 C 4.046875 -5.414062 3.628906 -4.414062 3.234375 -3.25 C 2.847656 -2.082031 2.570312 -1.050781 2.40625 -0.15625 C 2.382812 -0.0507812 2.3125 0.0234375 2.1875 0.078125 C 2.070312 0.140625 1.910156 0.171875 1.703125 0.171875 C 1.515625 0.171875 1.390625 0.160156 1.328125 0.140625 C 1.265625 0.117188 1.234375 0.0859375 1.234375 0.046875 L 1.34375 -0.453125 L 1.5625 -1.609375 L 2.28125 -5.609375 C 2.363281 -6.085938 2.40625 -6.460938 2.40625 -6.734375 C 2.40625 -7.378906 2.234375 -7.703125 1.890625 -7.703125 C 1.566406 -7.703125 1.125 -7.4375 0.5625 -6.90625 L 0.515625 -6.890625 C 0.472656 -6.890625 0.4375 -6.910156 0.40625 -6.953125 C 0.382812 -7.003906 0.378906 -7.046875 0.390625 -7.078125 C 0.835938 -7.566406 1.25 -7.929688 1.625 -8.171875 C 2 -8.421875 2.367188 -8.546875 2.734375 -8.546875 C 3.015625 -8.546875 3.222656 -8.453125 3.359375 -8.265625 C 3.503906 -8.078125 3.578125 -7.753906 3.578125 -7.296875 C 3.578125 -6.929688 3.519531 -6.382812 3.40625 -5.65625 L 2.9375 -3.1875 C 3.4375 -4.695312 3.976562 -5.96875 4.5625 -7 C 5.144531 -8.03125 5.710938 -8.546875 6.265625 -8.546875 Z M 6.265625 -8.546875 "/></g></g></g><g fill="#eae1d2" fill-opacity="1"><g transform="translate(227.028364, 226.158986)"><g><path d="M 6.109375 3.859375 C 6.066406 4.066406 6.046875 4.253906 6.046875 4.421875 C 6.046875 4.691406 6.113281 4.890625 6.25 5.015625 C 6.382812 5.148438 6.613281 5.21875 6.9375 5.21875 C 7.019531 5.21875 7.175781 5.203125 7.40625 5.171875 L 7.421875 5.171875 C 7.472656 5.171875 7.503906 5.207031 7.515625 5.28125 C 7.523438 5.351562 7.503906 5.398438 7.453125 5.421875 L 3.640625 5.953125 C 3.578125 5.972656 3.539062 5.9375 3.53125 5.84375 C 3.519531 5.757812 3.539062 5.710938 3.59375 5.703125 C 3.9375 5.640625 4.179688 5.5625 4.328125 5.46875 C 4.484375 5.382812 4.601562 5.238281 4.6875 5.03125 C 4.78125 4.820312 4.867188 4.476562 4.953125 4 L 6.265625 -3.359375 C 5.722656 -2.210938 5.078125 -1.316406 4.328125 -0.671875 C 3.578125 -0.0351562 2.84375 0.28125 2.125 0.28125 C 1.632812 0.28125 1.238281 0.09375 0.9375 -0.28125 C 0.644531 -0.65625 0.5 -1.15625 0.5 -1.78125 C 0.5 -1.976562 0.503906 -2.128906 0.515625 -2.234375 C 0.648438 -3.335938 1 -4.382812 1.5625 -5.375 C 2.132812 -6.363281 2.835938 -7.15625 3.671875 -7.75 C 4.503906 -8.34375 5.34375 -8.640625 6.1875 -8.640625 C 6.46875 -8.640625 6.734375 -8.585938 6.984375 -8.484375 C 7.234375 -8.390625 7.4375 -8.238281 7.59375 -8.03125 C 7.875 -8.257812 8.054688 -8.519531 8.140625 -8.8125 C 8.160156 -8.851562 8.207031 -8.863281 8.28125 -8.84375 C 8.363281 -8.832031 8.394531 -8.816406 8.375 -8.796875 Z M 2.8125 -0.78125 C 3.375 -0.78125 3.921875 -0.988281 4.453125 -1.40625 C 4.992188 -1.820312 5.453125 -2.390625 5.828125 -3.109375 C 6.210938 -3.835938 6.476562 -4.628906 6.625 -5.484375 C 6.6875 -5.765625 6.71875 -6.054688 6.71875 -6.359375 C 6.71875 -7.378906 6.304688 -7.890625 5.484375 -7.890625 C 4.554688 -7.890625 3.742188 -7.476562 3.046875 -6.65625 C 2.359375 -5.84375 1.910156 -4.6875 1.703125 -3.1875 C 1.691406 -3.050781 1.6875 -2.863281 1.6875 -2.625 C 1.6875 -1.394531 2.0625 -0.78125 2.8125 -0.78125 Z M 2.8125 -0.78125 "/></g></g></g><g fill="#eae1d2" fill-opacity="1"><g transform="translate(237.618353, 226.158986)"><g><path d="M 9.4375 -1.640625 C 9.457031 -1.660156 9.476562 -1.671875 9.5 -1.671875 C 9.550781 -1.671875 9.585938 -1.644531 9.609375 -1.59375 C 9.640625 -1.539062 9.640625 -1.5 9.609375 -1.46875 C 9.109375 -0.894531 8.65625 -0.472656 8.25 -0.203125 C 7.84375 0.0546875 7.453125 0.1875 7.078125 0.1875 C 6.835938 0.1875 6.65625 0.113281 6.53125 -0.03125 C 6.414062 -0.1875 6.359375 -0.429688 6.359375 -0.765625 C 6.359375 -1.140625 6.394531 -1.515625 6.46875 -1.890625 L 6.9375 -4.5 C 6.414062 -3 5.800781 -1.828125 5.09375 -0.984375 C 4.382812 -0.140625 3.640625 0.28125 2.859375 0.28125 C 1.898438 0.28125 1.421875 -0.253906 1.421875 -1.328125 C 1.421875 -1.710938 1.472656 -2.128906 1.578125 -2.578125 L 2.359375 -6.4375 C 2.398438 -6.675781 2.421875 -6.867188 2.421875 -7.015625 C 2.421875 -7.460938 2.285156 -7.6875 2.015625 -7.6875 C 1.722656 -7.6875 1.242188 -7.351562 0.578125 -6.6875 C 0.554688 -6.664062 0.53125 -6.65625 0.5 -6.65625 C 0.457031 -6.65625 0.421875 -6.675781 0.390625 -6.71875 C 0.359375 -6.769531 0.363281 -6.816406 0.40625 -6.859375 C 0.914062 -7.441406 1.359375 -7.867188 1.734375 -8.140625 C 2.117188 -8.410156 2.492188 -8.546875 2.859375 -8.546875 C 3.359375 -8.546875 3.609375 -8.21875 3.609375 -7.5625 C 3.609375 -7.34375 3.5625 -6.96875 3.46875 -6.4375 L 2.765625 -2.984375 C 2.671875 -2.441406 2.625 -2.046875 2.625 -1.796875 C 2.625 -0.972656 2.929688 -0.5625 3.546875 -0.5625 C 4.023438 -0.5625 4.519531 -0.863281 5.03125 -1.46875 C 5.539062 -2.070312 6.023438 -2.953125 6.484375 -4.109375 C 6.941406 -5.265625 7.304688 -6.628906 7.578125 -8.203125 C 7.617188 -8.421875 7.847656 -8.53125 8.265625 -8.53125 C 8.617188 -8.53125 8.796875 -8.488281 8.796875 -8.40625 L 8.703125 -7.90625 C 8.617188 -7.5625 8.539062 -7.175781 8.46875 -6.75 L 7.578125 -1.921875 C 7.535156 -1.710938 7.515625 -1.519531 7.515625 -1.34375 C 7.515625 -0.882812 7.660156 -0.65625 7.953125 -0.65625 C 8.109375 -0.65625 8.316406 -0.738281 8.578125 -0.90625 C 8.847656 -1.082031 9.132812 -1.328125 9.4375 -1.640625 Z M 9.4375 -1.640625 "/></g></g></g><g fill="#eae1d2" fill-opacity="1"><g transform="translate(249.291104, 226.158986)"><g><path d="M 7.125 -7.671875 C 7.125 -7.222656 6.890625 -6.789062 6.421875 -6.375 C 5.953125 -5.96875 5.320312 -5.609375 4.53125 -5.296875 C 3.75 -4.992188 2.90625 -4.773438 2 -4.640625 C 1.925781 -4.171875 1.890625 -3.769531 1.890625 -3.4375 C 1.890625 -2.539062 2.085938 -1.820312 2.484375 -1.28125 C 2.890625 -0.738281 3.460938 -0.46875 4.203125 -0.46875 C 5.015625 -0.46875 5.734375 -0.707031 6.359375 -1.1875 L 6.40625 -1.1875 C 6.445312 -1.1875 6.484375 -1.164062 6.515625 -1.125 C 6.554688 -1.082031 6.554688 -1.039062 6.515625 -1 C 5.503906 -0.15625 4.453125 0.265625 3.359375 0.265625 C 2.453125 0.265625 1.757812 -0.0234375 1.28125 -0.609375 C 0.8125 -1.203125 0.578125 -1.957031 0.578125 -2.875 C 0.578125 -3.195312 0.613281 -3.570312 0.6875 -4 C 0.820312 -4.738281 1.125 -5.460938 1.59375 -6.171875 C 2.070312 -6.890625 2.671875 -7.476562 3.390625 -7.9375 C 4.109375 -8.40625 4.851562 -8.640625 5.625 -8.640625 C 6.101562 -8.640625 6.472656 -8.550781 6.734375 -8.375 C 6.992188 -8.207031 7.125 -7.972656 7.125 -7.671875 Z M 4.671875 -8.0625 C 4.015625 -8.0625 3.457031 -7.765625 3 -7.171875 C 2.539062 -6.585938 2.226562 -5.84375 2.0625 -4.9375 C 3.070312 -5.113281 3.890625 -5.375 4.515625 -5.71875 C 5.140625 -6.0625 5.519531 -6.492188 5.65625 -7.015625 C 5.6875 -7.160156 5.703125 -7.257812 5.703125 -7.3125 C 5.703125 -7.5625 5.597656 -7.75 5.390625 -7.875 C 5.191406 -8 4.953125 -8.0625 4.671875 -8.0625 Z M 4.671875 -8.0625 "/></g></g></g><g fill="#eae1d2" fill-opacity="1"><g transform="translate(258.321933, 226.158986)"><g/></g></g><g fill="#eae1d2" fill-opacity="1"><g transform="translate(264.99237, 226.158986)"><g><path d="M 3.078125 0 C 3.035156 0 3.015625 -0.0390625 3.015625 -0.125 C 3.015625 -0.21875 3.035156 -0.265625 3.078125 -0.265625 C 3.566406 -0.265625 3.929688 -0.296875 4.171875 -0.359375 C 4.410156 -0.429688 4.585938 -0.570312 4.703125 -0.78125 C 4.828125 -1 4.925781 -1.320312 5 -1.75 L 6.78125 -11.78125 C 6.820312 -12.039062 6.84375 -12.257812 6.84375 -12.4375 C 6.84375 -12.71875 6.757812 -12.910156 6.59375 -13.015625 C 6.425781 -13.117188 6.117188 -13.171875 5.671875 -13.171875 L 5.15625 -13.171875 C 4.300781 -13.171875 3.625 -12.925781 3.125 -12.4375 C 2.625 -11.957031 2.21875 -11.160156 1.90625 -10.046875 C 1.90625 -10.015625 1.875 -10 1.8125 -10 C 1.769531 -10 1.726562 -10.007812 1.6875 -10.03125 C 1.644531 -10.050781 1.628906 -10.070312 1.640625 -10.09375 C 1.753906 -10.457031 1.921875 -11.082031 2.140625 -11.96875 C 2.359375 -12.851562 2.507812 -13.535156 2.59375 -14.015625 C 2.613281 -14.054688 2.664062 -14.070312 2.75 -14.0625 C 2.832031 -14.0625 2.867188 -14.035156 2.859375 -13.984375 C 2.816406 -13.679688 3.097656 -13.53125 3.703125 -13.53125 C 4.773438 -13.488281 6.097656 -13.46875 7.671875 -13.46875 C 8.398438 -13.46875 9.210938 -13.484375 10.109375 -13.515625 L 11.484375 -13.53125 C 11.910156 -13.53125 12.234375 -13.566406 12.453125 -13.640625 C 12.671875 -13.710938 12.820312 -13.859375 12.90625 -14.078125 C 12.9375 -14.117188 12.988281 -14.132812 13.0625 -14.125 C 13.132812 -14.125 13.160156 -14.09375 13.140625 -14.03125 C 13.023438 -13.644531 12.863281 -12.984375 12.65625 -12.046875 C 12.457031 -11.117188 12.332031 -10.46875 12.28125 -10.09375 C 12.257812 -10.050781 12.207031 -10.03125 12.125 -10.03125 C 12.050781 -10.039062 12.023438 -10.078125 12.046875 -10.140625 C 12.117188 -10.609375 12.15625 -10.992188 12.15625 -11.296875 C 12.15625 -11.960938 11.988281 -12.441406 11.65625 -12.734375 C 11.332031 -13.023438 10.800781 -13.171875 10.0625 -13.171875 L 9.546875 -13.171875 C 9.171875 -13.171875 8.882812 -13.128906 8.6875 -13.046875 C 8.5 -12.960938 8.359375 -12.820312 8.265625 -12.625 C 8.171875 -12.4375 8.085938 -12.140625 8.015625 -11.734375 L 6.265625 -1.75 C 6.210938 -1.488281 6.1875 -1.265625 6.1875 -1.078125 C 6.1875 -0.742188 6.289062 -0.523438 6.5 -0.421875 C 6.71875 -0.316406 7.117188 -0.265625 7.703125 -0.265625 C 7.734375 -0.265625 7.75 -0.21875 7.75 -0.125 C 7.75 -0.0390625 7.734375 0 7.703125 0 C 7.316406 0 7.007812 -0.00390625 6.78125 -0.015625 L 5.375 -0.046875 L 4.03125 -0.015625 C 3.800781 -0.00390625 3.484375 0 3.078125 0 Z M 3.078125 0 "/></g></g></g><g fill="#eae1d2" fill-opacity="1"><g transform="translate(278.570746, 226.158986)"><g><path d="M 7.125 -7.671875 C 7.125 -7.222656 6.890625 -6.789062 6.421875 -6.375 C 5.953125 -5.96875 5.320312 -5.609375 4.53125 -5.296875 C 3.75 -4.992188 2.90625 -4.773438 2 -4.640625 C 1.925781 -4.171875 1.890625 -3.769531 1.890625 -3.4375 C 1.890625 -2.539062 2.085938 -1.820312 2.484375 -1.28125 C 2.890625 -0.738281 3.460938 -0.46875 4.203125 -0.46875 C 5.015625 -0.46875 5.734375 -0.707031 6.359375 -1.1875 L 6.40625 -1.1875 C 6.445312 -1.1875 6.484375 -1.164062 6.515625 -1.125 C 6.554688 -1.082031 6.554688 -1.039062 6.515625 -1 C 5.503906 -0.15625 4.453125 0.265625 3.359375 0.265625 C 2.453125 0.265625 1.757812 -0.0234375 1.28125 -0.609375 C 0.8125 -1.203125 0.578125 -1.957031 0.578125 -2.875 C 0.578125 -3.195312 0.613281 -3.570312 0.6875 -4 C 0.820312 -4.738281 1.125 -5.460938 1.59375 -6.171875 C 2.070312 -6.890625 2.671875 -7.476562 3.390625 -7.9375 C 4.109375 -8.40625 4.851562 -8.640625 5.625 -8.640625 C 6.101562 -8.640625 6.472656 -8.550781 6.734375 -8.375 C 6.992188 -8.207031 7.125 -7.972656 7.125 -7.671875 Z M 4.671875 -8.0625 C 4.015625 -8.0625 3.457031 -7.765625 3 -7.171875 C 2.539062 -6.585938 2.226562 -5.84375 2.0625 -4.9375 C 3.070312 -5.113281 3.890625 -5.375 4.515625 -5.71875 C 5.140625 -6.0625 5.519531 -6.492188 5.65625 -7.015625 C 5.6875 -7.160156 5.703125 -7.257812 5.703125 -7.3125 C 5.703125 -7.5625 5.597656 -7.75 5.390625 -7.875 C 5.191406 -8 4.953125 -8.0625 4.671875 -8.0625 Z M 4.671875 -8.0625 "/></g></g></g><g fill="#eae1d2" fill-opacity="1"><g transform="translate(287.60156, 226.158986)"><g><path d="M 6.265625 -8.546875 C 6.535156 -8.546875 6.800781 -8.445312 7.0625 -8.25 C 7.320312 -8.050781 7.453125 -7.8125 7.453125 -7.53125 C 7.453125 -7.320312 7.378906 -7.144531 7.234375 -7 C 7.097656 -6.851562 6.929688 -6.78125 6.734375 -6.78125 C 6.578125 -6.78125 6.453125 -6.816406 6.359375 -6.890625 C 6.265625 -6.960938 6.164062 -7.070312 6.0625 -7.21875 C 6.007812 -7.28125 5.945312 -7.34375 5.875 -7.40625 C 5.800781 -7.476562 5.71875 -7.515625 5.625 -7.515625 C 5.3125 -7.515625 4.929688 -7.09375 4.484375 -6.25 C 4.046875 -5.414062 3.628906 -4.414062 3.234375 -3.25 C 2.847656 -2.082031 2.570312 -1.050781 2.40625 -0.15625 C 2.382812 -0.0507812 2.3125 0.0234375 2.1875 0.078125 C 2.070312 0.140625 1.910156 0.171875 1.703125 0.171875 C 1.515625 0.171875 1.390625 0.160156 1.328125 0.140625 C 1.265625 0.117188 1.234375 0.0859375 1.234375 0.046875 L 1.34375 -0.453125 L 1.5625 -1.609375 L 2.28125 -5.609375 C 2.363281 -6.085938 2.40625 -6.460938 2.40625 -6.734375 C 2.40625 -7.378906 2.234375 -7.703125 1.890625 -7.703125 C 1.566406 -7.703125 1.125 -7.4375 0.5625 -6.90625 L 0.515625 -6.890625 C 0.472656 -6.890625 0.4375 -6.910156 0.40625 -6.953125 C 0.382812 -7.003906 0.378906 -7.046875 0.390625 -7.078125 C 0.835938 -7.566406 1.25 -7.929688 1.625 -8.171875 C 2 -8.421875 2.367188 -8.546875 2.734375 -8.546875 C 3.015625 -8.546875 3.222656 -8.453125 3.359375 -8.265625 C 3.503906 -8.078125 3.578125 -7.753906 3.578125 -7.296875 C 3.578125 -6.929688 3.519531 -6.382812 3.40625 -5.65625 L 2.9375 -3.1875 C 3.4375 -4.695312 3.976562 -5.96875 4.5625 -7 C 5.144531 -8.03125 5.710938 -8.546875 6.265625 -8.546875 Z M 6.265625 -8.546875 "/></g></g></g><g fill="#eae1d2" fill-opacity="1"><g transform="translate(296.567423, 226.158986)"><g><path d="M 14.09375 -1.671875 C 14.125 -1.691406 14.15625 -1.703125 14.1875 -1.703125 C 14.226562 -1.703125 14.265625 -1.675781 14.296875 -1.625 C 14.328125 -1.582031 14.316406 -1.539062 14.265625 -1.5 C 13.773438 -0.914062 13.335938 -0.488281 12.953125 -0.21875 C 12.578125 0.0507812 12.207031 0.1875 11.84375 0.1875 C 11.582031 0.1875 11.394531 0.113281 11.28125 -0.03125 C 11.164062 -0.1875 11.109375 -0.429688 11.109375 -0.765625 C 11.109375 -1.066406 11.148438 -1.453125 11.234375 -1.921875 L 11.875 -5.375 C 11.9375 -5.75 11.96875 -6.140625 11.96875 -6.546875 C 11.96875 -6.960938 11.898438 -7.273438 11.765625 -7.484375 C 11.628906 -7.691406 11.414062 -7.796875 11.125 -7.796875 C 10.675781 -7.796875 10.210938 -7.503906 9.734375 -6.921875 C 9.253906 -6.335938 8.789062 -5.484375 8.34375 -4.359375 C 7.90625 -3.242188 7.539062 -1.925781 7.25 -0.40625 L 7.21875 -0.15625 C 7.195312 -0.0507812 7.128906 0.0234375 7.015625 0.078125 C 6.898438 0.140625 6.742188 0.171875 6.546875 0.171875 C 6.335938 0.171875 6.203125 0.160156 6.140625 0.140625 C 6.078125 0.117188 6.046875 0.0859375 6.046875 0.046875 L 6.15625 -0.453125 L 6.359375 -1.609375 L 7.078125 -5.375 C 7.140625 -5.757812 7.171875 -6.125 7.171875 -6.46875 C 7.171875 -7.351562 6.898438 -7.796875 6.359375 -7.796875 C 5.921875 -7.796875 5.453125 -7.5 4.953125 -6.90625 C 4.460938 -6.3125 4 -5.453125 3.5625 -4.328125 C 3.132812 -3.203125 2.785156 -1.882812 2.515625 -0.375 L 2.46875 -0.15625 C 2.425781 0.0625 2.195312 0.171875 1.78125 0.171875 C 1.570312 0.171875 1.4375 0.160156 1.375 0.140625 C 1.3125 0.117188 1.28125 0.0859375 1.28125 0.046875 C 1.28125 0.0234375 1.335938 -0.269531 1.453125 -0.84375 L 1.578125 -1.5 L 2.484375 -6.4375 C 2.535156 -6.644531 2.5625 -6.835938 2.5625 -7.015625 C 2.5625 -7.472656 2.414062 -7.703125 2.125 -7.703125 C 1.945312 -7.703125 1.722656 -7.613281 1.453125 -7.4375 C 1.191406 -7.269531 0.914062 -7.03125 0.625 -6.71875 C 0.613281 -6.695312 0.59375 -6.6875 0.5625 -6.6875 C 0.519531 -6.6875 0.476562 -6.710938 0.4375 -6.765625 C 0.40625 -6.816406 0.410156 -6.859375 0.453125 -6.890625 C 0.941406 -7.453125 1.390625 -7.867188 1.796875 -8.140625 C 2.210938 -8.410156 2.609375 -8.546875 2.984375 -8.546875 C 3.234375 -8.546875 3.414062 -8.46875 3.53125 -8.3125 C 3.644531 -8.164062 3.703125 -7.925781 3.703125 -7.59375 C 3.703125 -7.21875 3.664062 -6.84375 3.59375 -6.46875 L 3.15625 -4.03125 C 3.664062 -5.46875 4.265625 -6.59375 4.953125 -7.40625 C 5.640625 -8.226562 6.347656 -8.640625 7.078125 -8.640625 C 7.515625 -8.640625 7.835938 -8.515625 8.046875 -8.265625 C 8.253906 -8.015625 8.359375 -7.613281 8.359375 -7.0625 C 8.359375 -6.71875 8.316406 -6.289062 8.234375 -5.78125 L 7.890625 -3.875 C 8.390625 -5.375 8.984375 -6.539062 9.671875 -7.375 C 10.367188 -8.21875 11.09375 -8.640625 11.84375 -8.640625 C 12.289062 -8.640625 12.625 -8.507812 12.84375 -8.25 C 13.0625 -7.988281 13.171875 -7.578125 13.171875 -7.015625 C 13.171875 -6.671875 13.125 -6.257812 13.03125 -5.78125 L 12.34375 -1.921875 C 12.300781 -1.691406 12.28125 -1.5 12.28125 -1.34375 C 12.28125 -0.894531 12.410156 -0.671875 12.671875 -0.671875 C 12.984375 -0.671875 13.457031 -1.003906 14.09375 -1.671875 Z M 14.09375 -1.671875 "/></g></g></g><g fill="#eae1d2" fill-opacity="1"><g transform="translate(312.809395, 226.158986)"><g><path d="M 8.859375 -1.671875 C 8.867188 -1.679688 8.890625 -1.6875 8.921875 -1.6875 C 8.960938 -1.6875 9 -1.660156 9.03125 -1.609375 C 9.0625 -1.554688 9.0625 -1.519531 9.03125 -1.5 C 8.539062 -0.9375 8.101562 -0.515625 7.71875 -0.234375 C 7.332031 0.046875 6.960938 0.1875 6.609375 0.1875 C 6.359375 0.1875 6.171875 0.113281 6.046875 -0.03125 C 5.929688 -0.1875 5.875 -0.4375 5.875 -0.78125 C 5.875 -1.070312 5.914062 -1.453125 6 -1.921875 L 6.390625 -4.171875 C 5.722656 -2.835938 4.972656 -1.757812 4.140625 -0.9375 C 3.316406 -0.125 2.519531 0.28125 1.75 0.28125 C 0.851562 0.28125 0.40625 -0.253906 0.40625 -1.328125 C 0.40625 -1.441406 0.421875 -1.65625 0.453125 -1.96875 C 0.597656 -3 0.976562 -4.03125 1.59375 -5.0625 C 2.21875 -6.101562 2.945312 -6.957031 3.78125 -7.625 C 4.625 -8.300781 5.414062 -8.640625 6.15625 -8.640625 C 6.425781 -8.640625 6.691406 -8.585938 6.953125 -8.484375 C 7.210938 -8.390625 7.421875 -8.238281 7.578125 -8.03125 C 7.835938 -8.25 8.007812 -8.507812 8.09375 -8.8125 C 8.113281 -8.851562 8.164062 -8.863281 8.25 -8.84375 C 8.332031 -8.832031 8.367188 -8.816406 8.359375 -8.796875 L 7.109375 -1.921875 C 7.054688 -1.710938 7.03125 -1.519531 7.03125 -1.34375 C 7.03125 -0.894531 7.160156 -0.671875 7.421875 -0.671875 C 7.742188 -0.671875 8.222656 -1.003906 8.859375 -1.671875 Z M 2.53125 -0.78125 C 3.050781 -0.78125 3.601562 -1.046875 4.1875 -1.578125 C 4.769531 -2.109375 5.289062 -2.78125 5.75 -3.59375 C 6.21875 -4.414062 6.53125 -5.21875 6.6875 -6 C 6.726562 -6.1875 6.742188 -6.351562 6.734375 -6.5 C 6.734375 -6.925781 6.617188 -7.265625 6.390625 -7.515625 C 6.171875 -7.765625 5.835938 -7.890625 5.390625 -7.890625 C 4.890625 -7.867188 4.375 -7.640625 3.84375 -7.203125 C 3.3125 -6.765625 2.851562 -6.171875 2.46875 -5.421875 C 2.082031 -4.679688 1.820312 -3.851562 1.6875 -2.9375 C 1.644531 -2.625 1.625 -2.335938 1.625 -2.078125 C 1.625 -1.210938 1.925781 -0.78125 2.53125 -0.78125 Z M 2.53125 -0.78125 "/></g></g></g><g fill="#eae1d2" fill-opacity="1"><g transform="translate(323.810817, 226.158986)"><g><path d="M 1.96875 0.1875 C 1.695312 0.1875 1.5 0.113281 1.375 -0.03125 C 1.25 -0.1875 1.1875 -0.441406 1.1875 -0.796875 C 1.1875 -1.097656 1.234375 -1.472656 1.328125 -1.921875 L 3.46875 -13.40625 C 3.5 -13.519531 3.515625 -13.675781 3.515625 -13.875 C 3.515625 -14.238281 3.367188 -14.421875 3.078125 -14.421875 C 2.847656 -14.421875 2.5 -14.3125 2.03125 -14.09375 L 2 -14.09375 C 1.9375 -14.09375 1.894531 -14.128906 1.875 -14.203125 C 1.851562 -14.273438 1.867188 -14.320312 1.921875 -14.34375 L 4.71875 -15.703125 L 4.765625 -15.703125 C 4.816406 -15.703125 4.867188 -15.679688 4.921875 -15.640625 C 4.972656 -15.597656 4.992188 -15.5625 4.984375 -15.53125 L 2.46875 -1.921875 C 2.40625 -1.609375 2.375 -1.410156 2.375 -1.328125 C 2.375 -1.109375 2.414062 -0.941406 2.5 -0.828125 C 2.582031 -0.722656 2.6875 -0.671875 2.8125 -0.671875 C 3.113281 -0.671875 3.582031 -1.003906 4.21875 -1.671875 C 4.25 -1.691406 4.28125 -1.703125 4.3125 -1.703125 C 4.351562 -1.703125 4.390625 -1.675781 4.421875 -1.625 C 4.453125 -1.582031 4.441406 -1.539062 4.390625 -1.5 C 3.898438 -0.914062 3.460938 -0.488281 3.078125 -0.21875 C 2.703125 0.0507812 2.332031 0.1875 1.96875 0.1875 Z M 1.96875 0.1875 "/></g></g></g></svg>